# Blender v2.93.4 OBJ File: 'drone.blend'
# www.blender.org
mtllib drone.mtl
o Cube_Cube.001
v -0.101866 -0.038829 0.101866
v -0.101866 0.038829 0.101866
v -0.101866 -0.038829 -0.101866
v -0.101866 0.038829 -0.101866
v 0.101866 -0.038829 0.101866
v 0.101866 0.038829 0.101866
v 0.101866 -0.038829 -0.101866
v 0.101866 0.038829 -0.101866
vt 0.375000 0.000000
vt 0.625000 0.000000
vt 0.625000 0.250000
vt 0.375000 0.250000
vt 0.625000 0.500000
vt 0.375000 0.500000
vt 0.625000 0.750000
vt 0.375000 0.750000
vt 0.625000 1.000000
vt 0.375000 1.000000
vt 0.125000 0.500000
vt 0.125000 0.750000
vt 0.875000 0.500000
vt 0.875000 0.750000
vn -1.0000 0.0000 0.0000
vn 0.0000 0.0000 -1.0000
vn 1.0000 0.0000 0.0000
vn 0.0000 0.0000 1.0000
vn 0.0000 -1.0000 0.0000
vn 0.0000 1.0000 0.0000
usemtl None
s off
f 1/1/1 2/2/1 4/3/1 3/4/1
f 3/4/2 4/3/2 8/5/2 7/6/2
f 7/6/3 8/5/3 6/7/3 5/8/3
f 5/8/4 6/7/4 2/9/4 1/10/4
f 3/11/5 7/6/5 5/8/5 1/12/5
f 8/5/6 4/13/6 2/14/6 6/7/6
o Cylinder.003_Cylinder.004
v -0.211925 -0.026915 -0.316693
v -0.211925 0.007728 -0.322708
v -0.142828 -0.026915 -0.291544
v -0.138962 0.007728 -0.296151
v -0.106062 -0.026915 -0.227864
v -0.100139 0.007728 -0.228908
v -0.118831 -0.026915 -0.155449
v -0.113622 0.007728 -0.152442
v -0.175159 -0.026915 -0.108184
v -0.173102 0.007728 -0.102532
v -0.248691 -0.026915 -0.108184
v -0.250748 0.007728 -0.102532
v -0.305019 -0.026915 -0.155449
v -0.310228 0.007728 -0.152442
v -0.317788 -0.026915 -0.227864
v -0.323711 0.007728 -0.228908
v -0.281022 -0.026915 -0.291544
v -0.284888 0.007728 -0.296151
v -0.211925 -0.026915 -0.382648
v -0.100433 -0.026915 -0.342068
v -0.041109 -0.026915 -0.239316
v -0.061712 -0.026915 -0.122472
v -0.152601 -0.026915 -0.046207
v -0.271249 -0.026915 -0.046207
v -0.362138 -0.026915 -0.122472
v -0.382741 -0.026915 -0.239316
v -0.323417 -0.026915 -0.342068
v -0.100433 0.007728 -0.342068
v -0.211925 0.007728 -0.382648
v -0.041109 0.007728 -0.239316
v -0.061712 0.007728 -0.122472
v -0.152601 0.007728 -0.046207
v -0.271249 0.007728 -0.046207
v -0.362138 0.007728 -0.122472
v -0.382741 0.007728 -0.239316
v -0.323417 0.007728 -0.342068
vt 1.000000 0.500000
vt 1.000000 1.000000
vt 0.888889 1.000000
vt 0.888889 0.500000
vt 0.777778 1.000000
vt 0.777778 0.500000
vt 0.666667 1.000000
vt 0.666667 0.500000
vt 0.555556 1.000000
vt 0.555556 0.500000
vt 0.444444 1.000000
vt 0.444444 0.500000
vt 0.333333 1.000000
vt 0.333333 0.500000
vt 0.222222 1.000000
vt 0.222222 0.500000
vt 0.111111 1.000000
vt 0.111111 0.500000
vt 0.000000 1.000000
vt 0.000000 0.500000
vt 0.845608 0.363941
vt 0.750000 0.398740
vt 0.750000 0.490000
vt 0.904269 0.433851
vt 0.896480 0.275828
vt 0.986354 0.291676
vt 0.878813 0.175630
vt 0.957846 0.130000
vt 0.800872 0.110230
vt 0.832085 0.024474
vt 0.699128 0.110230
vt 0.667915 0.024474
vt 0.621187 0.175630
vt 0.542154 0.130000
vt 0.603520 0.275828
vt 0.513646 0.291676
vt 0.654392 0.363941
vt 0.595731 0.433851
vt 0.611656 1.000000
vt 0.674346 1.000000
vt 0.271231 1.000000
vt 0.617658 1.000000
vt 0.530535 1.000000
vt 0.444444 1.000000
vt 0.358354 1.000000
vt 0.277233 1.000000
vt 0.214543 1.000000
vn 0.3420 0.0000 -0.9397
vn 0.8660 0.0000 -0.5000
vn 0.9848 0.0000 0.1736
vn 0.6428 0.0000 0.7660
vn 0.0000 0.0000 1.0000
vn -0.6428 0.0000 0.7660
vn -0.9848 0.0000 0.1736
vn -0.8660 0.0000 -0.5000
vn -0.3420 0.0000 -0.9397
vn 0.0000 -1.0000 -0.0000
vn -0.9720 0.1610 -0.1714
vn 0.0000 1.0000 0.0000
vn -0.6344 0.1610 -0.7560
vn 0.0000 0.1610 -0.9870
vn 0.6344 0.1610 -0.7560
vn 0.9720 0.1610 -0.1714
vn 0.8547 0.1610 0.4935
vn 0.3376 0.1610 0.9274
vn -0.3376 0.1610 0.9274
vn -0.8547 0.1610 0.4935
usemtl None
s off
f 27/15/7 37/16/7 36/17/7 28/18/7
f 28/18/8 36/17/8 38/19/8 29/20/8
f 29/20/9 38/19/9 39/21/9 30/22/9
f 30/22/10 39/21/10 40/23/10 31/24/10
f 31/24/11 40/23/11 41/25/11 32/26/11
f 32/26/12 41/25/12 42/27/12 33/28/12
f 33/28/13 42/27/13 43/29/13 34/30/13
f 34/30/14 43/29/14 44/31/14 35/32/14
f 35/32/15 44/31/15 37/33/15 27/34/15
f 11/35/16 9/36/16 27/37/16 28/38/16
f 13/39/16 11/35/16 28/38/16 29/40/16
f 15/41/16 13/39/16 29/40/16 30/42/16
f 17/43/16 15/41/16 30/42/16 31/44/16
f 19/45/16 17/43/16 31/44/16 32/46/16
f 21/47/16 19/45/16 32/46/16 33/48/16
f 23/49/16 21/47/16 33/48/16 34/50/16
f 25/51/16 23/49/16 34/50/16 35/52/16
f 9/36/16 25/51/16 35/52/16 27/37/16
f 13/39/17 15/41/17 16/53/17 14/54/17
f 10/55/18 12/56/18 36/17/18 37/33/18
f 12/56/18 14/54/18 38/19/18 36/17/18
f 14/54/18 16/53/18 39/21/18 38/19/18
f 16/53/18 18/57/18 40/23/18 39/21/18
f 18/57/18 20/58/18 41/25/18 40/23/18
f 20/58/18 22/59/18 42/27/18 41/25/18
f 22/59/18 24/60/18 43/29/18 42/27/18
f 24/60/18 26/61/18 44/31/18 43/29/18
f 26/61/18 10/55/18 37/33/18 44/31/18
f 15/41/19 17/43/19 18/57/19 16/53/19
f 17/43/20 19/45/20 20/58/20 18/57/20
f 19/45/21 21/47/21 22/59/21 20/58/21
f 21/47/22 23/49/22 24/60/22 22/59/22
f 23/49/23 25/51/23 26/61/23 24/60/23
f 25/51/24 9/36/24 10/55/24 26/61/24
f 9/36/25 11/35/25 12/56/25 10/55/25
f 11/35/26 13/39/26 14/54/26 12/56/26
o Cylinder.001_Cylinder.005
v 0.214008 -0.026915 -0.316693
v 0.214008 0.007728 -0.322708
v 0.283105 -0.026915 -0.291544
v 0.286971 0.007728 -0.296151
v 0.319871 -0.026915 -0.227864
v 0.325794 0.007728 -0.228908
v 0.307102 -0.026915 -0.155449
v 0.312311 0.007728 -0.152442
v 0.250774 -0.026915 -0.108184
v 0.252831 0.007728 -0.102532
v 0.177242 -0.026915 -0.108184
v 0.175185 0.007728 -0.102532
v 0.120913 -0.026915 -0.155449
v 0.115705 0.007728 -0.152442
v 0.108145 -0.026915 -0.227864
v 0.102222 0.007728 -0.228908
v 0.144911 -0.026915 -0.291544
v 0.141045 0.007728 -0.296151
v 0.214008 -0.026915 -0.382648
v 0.325500 -0.026915 -0.342068
v 0.384824 -0.026915 -0.239316
v 0.364221 -0.026915 -0.122472
v 0.273332 -0.026915 -0.046207
v 0.154684 -0.026915 -0.046207
v 0.063795 -0.026915 -0.122472
v 0.043192 -0.026915 -0.239316
v 0.102516 -0.026915 -0.342068
v 0.325500 0.007728 -0.342068
v 0.214008 0.007728 -0.382648
v 0.384824 0.007728 -0.239316
v 0.364221 0.007728 -0.122472
v 0.273332 0.007728 -0.046207
v 0.154684 0.007728 -0.046207
v 0.063795 0.007728 -0.122472
v 0.043192 0.007728 -0.239316
v 0.102516 0.007728 -0.342068
vt 1.000000 0.500000
vt 1.000000 1.000000
vt 0.888889 1.000000
vt 0.888889 0.500000
vt 0.777778 1.000000
vt 0.777778 0.500000
vt 0.666667 1.000000
vt 0.666667 0.500000
vt 0.555556 1.000000
vt 0.555556 0.500000
vt 0.444444 1.000000
vt 0.444444 0.500000
vt 0.333333 1.000000
vt 0.333333 0.500000
vt 0.222222 1.000000
vt 0.222222 0.500000
vt 0.111111 1.000000
vt 0.111111 0.500000
vt 0.000000 1.000000
vt 0.000000 0.500000
vt 0.845608 0.363941
vt 0.750000 0.398740
vt 0.750000 0.490000
vt 0.904269 0.433851
vt 0.896480 0.275828
vt 0.986354 0.291676
vt 0.878813 0.175630
vt 0.957846 0.130000
vt 0.800872 0.110230
vt 0.832085 0.024474
vt 0.699128 0.110230
vt 0.667915 0.024474
vt 0.621187 0.175630
vt 0.542154 0.130000
vt 0.603520 0.275828
vt 0.513646 0.291676
vt 0.654392 0.363941
vt 0.595731 0.433851
vt 0.611656 1.000000
vt 0.674346 1.000000
vt 0.271231 1.000000
vt 0.617658 1.000000
vt 0.530535 1.000000
vt 0.444444 1.000000
vt 0.358354 1.000000
vt 0.277233 1.000000
vt 0.214543 1.000000
vn 0.3420 0.0000 -0.9397
vn 0.8660 0.0000 -0.5000
vn 0.9848 0.0000 0.1736
vn 0.6428 0.0000 0.7660
vn 0.0000 0.0000 1.0000
vn -0.6428 0.0000 0.7660
vn -0.9848 0.0000 0.1736
vn -0.8660 0.0000 -0.5000
vn -0.3420 0.0000 -0.9397
vn 0.0000 -1.0000 0.0000
vn -0.9720 0.1610 -0.1714
vn 0.0000 1.0000 -0.0000
vn -0.6344 0.1610 -0.7560
vn 0.0000 0.1610 -0.9870
vn 0.6344 0.1610 -0.7560
vn 0.9720 0.1610 -0.1714
vn 0.8547 0.1610 0.4935
vn 0.3376 0.1610 0.9274
vn -0.3376 0.1610 0.9274
vn -0.8547 0.1610 0.4935
usemtl None
s off
f 63/62/27 73/63/27 72/64/27 64/65/27
f 64/65/28 72/64/28 74/66/28 65/67/28
f 65/67/29 74/66/29 75/68/29 66/69/29
f 66/69/30 75/68/30 76/70/30 67/71/30
f 67/71/31 76/70/31 77/72/31 68/73/31
f 68/73/32 77/72/32 78/74/32 69/75/32
f 69/75/33 78/74/33 79/76/33 70/77/33
f 70/77/34 79/76/34 80/78/34 71/79/34
f 71/79/35 80/78/35 73/80/35 63/81/35
f 47/82/36 45/83/36 63/84/36 64/85/36
f 49/86/36 47/82/36 64/85/36 65/87/36
f 51/88/36 49/86/36 65/87/36 66/89/36
f 53/90/36 51/88/36 66/89/36 67/91/36
f 55/92/36 53/90/36 67/91/36 68/93/36
f 57/94/36 55/92/36 68/93/36 69/95/36
f 59/96/36 57/94/36 69/95/36 70/97/36
f 61/98/36 59/96/36 70/97/36 71/99/36
f 45/83/36 61/98/36 71/99/36 63/84/36
f 49/86/37 51/88/37 52/100/37 50/101/37
f 46/102/38 48/103/38 72/64/38 73/80/38
f 48/103/38 50/101/38 74/66/38 72/64/38
f 50/101/38 52/100/38 75/68/38 74/66/38
f 52/100/38 54/104/38 76/70/38 75/68/38
f 54/104/38 56/105/38 77/72/38 76/70/38
f 56/105/38 58/106/38 78/74/38 77/72/38
f 58/106/38 60/107/38 79/76/38 78/74/38
f 60/107/38 62/108/38 80/78/38 79/76/38
f 62/108/38 46/102/38 73/80/38 80/78/38
f 51/88/39 53/90/39 54/104/39 52/100/39
f 53/90/40 55/92/40 56/105/40 54/104/40
f 55/92/41 57/94/41 58/106/41 56/105/41
f 57/94/42 59/96/42 60/107/42 58/106/42
f 59/96/43 61/98/43 62/108/43 60/107/43
f 61/98/44 45/83/44 46/102/44 62/108/44
f 45/83/45 47/82/45 48/103/45 46/102/45
f 47/82/46 49/86/46 50/101/46 48/103/46
o Cylinder.002_Cylinder.006
v 0.214008 -0.026915 0.108297
v 0.214008 0.007728 0.102283
v 0.283105 -0.026915 0.133447
v 0.286971 0.007728 0.128839
v 0.319871 -0.026915 0.197127
v 0.325794 0.007728 0.196083
v 0.307102 -0.026915 0.269542
v 0.312311 0.007728 0.272549
v 0.250774 -0.026915 0.316807
v 0.252831 0.007728 0.322459
v 0.177242 -0.026915 0.316807
v 0.175185 0.007728 0.322459
v 0.120913 -0.026915 0.269542
v 0.115705 0.007728 0.272549
v 0.108145 -0.026915 0.197127
v 0.102222 0.007728 0.196083
v 0.144911 -0.026915 0.133447
v 0.141045 0.007728 0.128839
v 0.214008 -0.026915 0.042343
v 0.325500 -0.026915 0.082922
v 0.384824 -0.026915 0.185674
v 0.364221 -0.026915 0.302519
v 0.273332 -0.026915 0.378784
v 0.154684 -0.026915 0.378784
v 0.063795 -0.026915 0.302519
v 0.043192 -0.026915 0.185674
v 0.102516 -0.026915 0.082922
v 0.325500 0.007728 0.082922
v 0.214008 0.007728 0.042343
v 0.384824 0.007728 0.185674
v 0.364221 0.007728 0.302519
v 0.273332 0.007728 0.378784
v 0.154684 0.007728 0.378784
v 0.063795 0.007728 0.302519
v 0.043192 0.007728 0.185674
v 0.102516 0.007728 0.082922
vt 1.000000 0.500000
vt 1.000000 1.000000
vt 0.888889 1.000000
vt 0.888889 0.500000
vt 0.777778 1.000000
vt 0.777778 0.500000
vt 0.666667 1.000000
vt 0.666667 0.500000
vt 0.555556 1.000000
vt 0.555556 0.500000
vt 0.444444 1.000000
vt 0.444444 0.500000
vt 0.333333 1.000000
vt 0.333333 0.500000
vt 0.222222 1.000000
vt 0.222222 0.500000
vt 0.111111 1.000000
vt 0.111111 0.500000
vt 0.000000 1.000000
vt 0.000000 0.500000
vt 0.845608 0.363941
vt 0.750000 0.398740
vt 0.750000 0.490000
vt 0.904269 0.433851
vt 0.896480 0.275828
vt 0.986354 0.291676
vt 0.878813 0.175630
vt 0.957846 0.130000
vt 0.800872 0.110230
vt 0.832085 0.024474
vt 0.699128 0.110230
vt 0.667915 0.024474
vt 0.621187 0.175630
vt 0.542154 0.130000
vt 0.603520 0.275828
vt 0.513646 0.291676
vt 0.654392 0.363941
vt 0.595731 0.433851
vt 0.611656 1.000000
vt 0.674346 1.000000
vt 0.271231 1.000000
vt 0.617658 1.000000
vt 0.530535 1.000000
vt 0.444444 1.000000
vt 0.358354 1.000000
vt 0.277233 1.000000
vt 0.214543 1.000000
vn 0.3420 0.0000 -0.9397
vn 0.8660 0.0000 -0.5000
vn 0.9848 0.0000 0.1736
vn 0.6428 0.0000 0.7660
vn 0.0000 0.0000 1.0000
vn -0.6428 0.0000 0.7660
vn -0.9848 0.0000 0.1736
vn -0.8660 0.0000 -0.5000
vn -0.3420 0.0000 -0.9397
vn 0.0000 -1.0000 0.0000
vn -0.9720 0.1610 -0.1714
vn 0.0000 1.0000 -0.0000
vn -0.6344 0.1610 -0.7560
vn 0.0000 0.1610 -0.9870
vn 0.6344 0.1610 -0.7560
vn 0.9720 0.1610 -0.1714
vn 0.8547 0.1610 0.4935
vn 0.3376 0.1610 0.9274
vn -0.3376 0.1610 0.9274
vn -0.8547 0.1610 0.4935
usemtl None
s off
f 99/109/47 109/110/47 108/111/47 100/112/47
f 100/112/48 108/111/48 110/113/48 101/114/48
f 101/114/49 110/113/49 111/115/49 102/116/49
f 102/116/50 111/115/50 112/117/50 103/118/50
f 103/118/51 112/117/51 113/119/51 104/120/51
f 104/120/52 113/119/52 114/121/52 105/122/52
f 105/122/53 114/121/53 115/123/53 106/124/53
f 106/124/54 115/123/54 116/125/54 107/126/54
f 107/126/55 116/125/55 109/127/55 99/128/55
f 83/129/56 81/130/56 99/131/56 100/132/56
f 85/133/56 83/129/56 100/132/56 101/134/56
f 87/135/56 85/133/56 101/134/56 102/136/56
f 89/137/56 87/135/56 102/136/56 103/138/56
f 91/139/56 89/137/56 103/138/56 104/140/56
f 93/141/56 91/139/56 104/140/56 105/142/56
f 95/143/56 93/141/56 105/142/56 106/144/56
f 97/145/56 95/143/56 106/144/56 107/146/56
f 81/130/56 97/145/56 107/146/56 99/131/56
f 85/133/57 87/135/57 88/147/57 86/148/57
f 82/149/58 84/150/58 108/111/58 109/127/58
f 84/150/58 86/148/58 110/113/58 108/111/58
f 86/148/58 88/147/58 111/115/58 110/113/58
f 88/147/58 90/151/58 112/117/58 111/115/58
f 90/151/58 92/152/58 113/119/58 112/117/58
f 92/152/58 94/153/58 114/121/58 113/119/58
f 94/153/58 96/154/58 115/123/58 114/121/58
f 96/154/58 98/155/58 116/125/58 115/123/58
f 98/155/58 82/149/58 109/127/58 116/125/58
f 87/135/59 89/137/59 90/151/59 88/147/59
f 89/137/60 91/139/60 92/152/60 90/151/60
f 91/139/61 93/141/61 94/153/61 92/152/61
f 93/141/62 95/143/62 96/154/62 94/153/62
f 95/143/63 97/145/63 98/155/63 96/154/63
f 97/145/64 81/130/64 82/149/64 98/155/64
f 81/130/65 83/129/65 84/150/65 82/149/65
f 83/129/66 85/133/66 86/148/66 84/150/66
o Cylinder.004_Cylinder.007
v -0.211925 -0.026915 0.103586
v -0.211925 0.007728 0.097571
v -0.142828 -0.026915 0.128735
v -0.138962 0.007728 0.124128
v -0.106062 -0.026915 0.192415
v -0.100139 0.007728 0.191371
v -0.118831 -0.026915 0.264830
v -0.113622 0.007728 0.267837
v -0.175159 -0.026915 0.312095
v -0.173102 0.007728 0.317747
v -0.248691 -0.026915 0.312095
v -0.250748 0.007728 0.317747
v -0.305019 -0.026915 0.264830
v -0.310228 0.007728 0.267837
v -0.317788 -0.026915 0.192415
v -0.323711 0.007728 0.191371
v -0.281022 -0.026915 0.128735
v -0.284888 0.007728 0.124128
v -0.211925 -0.026915 0.037631
v -0.100433 -0.026915 0.078211
v -0.041109 -0.026915 0.180962
v -0.061712 -0.026915 0.297807
v -0.152601 -0.026915 0.374072
v -0.271249 -0.026915 0.374072
v -0.362138 -0.026915 0.297807
v -0.382741 -0.026915 0.180962
v -0.323417 -0.026915 0.078211
v -0.100433 0.007728 0.078211
v -0.211925 0.007728 0.037631
v -0.041109 0.007728 0.180962
v -0.061712 0.007728 0.297807
v -0.152601 0.007728 0.374072
v -0.271249 0.007728 0.374072
v -0.362138 0.007728 0.297807
v -0.382741 0.007728 0.180962
v -0.323417 0.007728 0.078211
vt 1.000000 0.500000
vt 1.000000 1.000000
vt 0.888889 1.000000
vt 0.888889 0.500000
vt 0.777778 1.000000
vt 0.777778 0.500000
vt 0.666667 1.000000
vt 0.666667 0.500000
vt 0.555556 1.000000
vt 0.555556 0.500000
vt 0.444444 1.000000
vt 0.444444 0.500000
vt 0.333333 1.000000
vt 0.333333 0.500000
vt 0.222222 1.000000
vt 0.222222 0.500000
vt 0.111111 1.000000
vt 0.111111 0.500000
vt 0.000000 1.000000
vt 0.000000 0.500000
vt 0.845608 0.363941
vt 0.750000 0.398740
vt 0.750000 0.490000
vt 0.904269 0.433851
vt 0.896480 0.275828
vt 0.986354 0.291676
vt 0.878813 0.175630
vt 0.957846 0.130000
vt 0.800872 0.110230
vt 0.832085 0.024474
vt 0.699128 0.110230
vt 0.667915 0.024474
vt 0.621187 0.175630
vt 0.542154 0.130000
vt 0.603520 0.275828
vt 0.513646 0.291676
vt 0.654392 0.363941
vt 0.595731 0.433851
vt 0.611656 1.000000
vt 0.674346 1.000000
vt 0.271231 1.000000
vt 0.617658 1.000000
vt 0.530535 1.000000
vt 0.444444 1.000000
vt 0.358354 1.000000
vt 0.277233 1.000000
vt 0.214543 1.000000
vn 0.3420 0.0000 -0.9397
vn 0.8660 0.0000 -0.5000
vn 0.9848 0.0000 0.1736
vn 0.6428 0.0000 0.7660
vn 0.0000 0.0000 1.0000
vn -0.6428 0.0000 0.7660
vn -0.9848 0.0000 0.1736
vn -0.8660 0.0000 -0.5000
vn -0.3420 0.0000 -0.9397
vn 0.0000 -1.0000 -0.0000
vn -0.9720 0.1610 -0.1714
vn 0.0000 1.0000 0.0000
vn -0.6344 0.1610 -0.7560
vn 0.0000 0.1610 -0.9870
vn 0.6344 0.1610 -0.7560
vn 0.9720 0.1610 -0.1714
vn 0.8547 0.1610 0.4935
vn 0.3376 0.1610 0.9274
vn -0.3376 0.1610 0.9274
vn -0.8547 0.1610 0.4935
usemtl None
s off
f 135/156/67 145/157/67 144/158/67 136/159/67
f 136/159/68 144/158/68 146/160/68 137/161/68
f 137/161/69 146/160/69 147/162/69 138/163/69
f 138/163/70 147/162/70 148/164/70 139/165/70
f 139/165/71 148/164/71 149/166/71 140/167/71
f 140/167/72 149/166/72 150/168/72 141/169/72
f 141/169/73 150/168/73 151/170/73 142/171/73
f 142/171/74 151/170/74 152/172/74 143/173/74
f 143/173/75 152/172/75 145/174/75 135/175/75
f 119/176/76 117/177/76 135/178/76 136/179/76
f 121/180/76 119/176/76 136/179/76 137/181/76
f 123/182/76 121/180/76 137/181/76 138/183/76
f 125/184/76 123/182/76 138/183/76 139/185/76
f 127/186/76 125/184/76 139/185/76 140/187/76
f 129/188/76 127/186/76 140/187/76 141/189/76
f 131/190/76 129/188/76 141/189/76 142/191/76
f 133/192/76 131/190/76 142/191/76 143/193/76
f 117/177/76 133/192/76 143/193/76 135/178/76
f 121/180/77 123/182/77 124/194/77 122/195/77
f 118/196/78 120/197/78 144/158/78 145/174/78
f 120/197/78 122/195/78 146/160/78 144/158/78
f 122/195/78 124/194/78 147/162/78 146/160/78
f 124/194/78 126/198/78 148/164/78 147/162/78
f 126/198/78 128/199/78 149/166/78 148/164/78
f 128/199/78 130/200/78 150/168/78 149/166/78
f 130/200/78 132/201/78 151/170/78 150/168/78
f 132/201/78 134/202/78 152/172/78 151/170/78
f 134/202/78 118/196/78 145/174/78 152/172/78
f 123/182/79 125/184/79 126/198/79 124/194/79
f 125/184/80 127/186/80 128/199/80 126/198/80
f 127/186/81 129/188/81 130/200/81 128/199/81
f 129/188/82 131/190/82 132/201/82 130/200/82
f 131/190/83 133/192/83 134/202/83 132/201/83
f 133/192/84 117/177/84 118/196/84 134/202/84
f 117/177/85 119/176/85 120/197/85 118/196/85
f 119/176/86 121/180/86 122/195/86 120/197/86
